<svg xmlns="http://www.w3.org/2000/svg" fill="none" viewBox="0 0 228 228"><path fill="#282828" fill-opacity=".7" stroke="#1E1E1E" stroke-opacity=".7" stroke-width="40" d="M114 29l-85 85 85 85 85-85-85-85z"/><path fill="url(#a)" d="M81.857 101a12.858 12.858 0 000 25.714h64.286a12.856 12.856 0 100-25.714H81.857z"/><path fill="#028EF5" d="M134.182 39a27.274 27.274 0 00-27.273 27.273v95.454a13.64 13.64 0 01-13.636 13.637 13.637 13.637 0 01-13.637-13.637 6.82 6.82 0 10-13.617.509A27.272 27.272 0 0093.273 189a27.269 27.269 0 0027.272-27.273V66.273a13.637 13.637 0 0127.273 0 6.82 6.82 0 006.818 6.818 6.82 6.82 0 006.803-7.268A27.275 27.275 0 00134.182 39z"/><defs><linearGradient id="a" x1="69" x2="159" y1="113.857" y2="113.857" gradientUnits="userSpaceOnUse"><stop stop-opacity="0"/><stop offset=".4" stop-color="#fff"/><stop offset=".6" stop-color="#fff"/><stop offset="1" stop-opacity="0"/></linearGradient></defs></svg>